<?xml version="1.0" encoding="UTF-8"?>
<svg id="Layer_2" data-name="Layer 2" xmlns="http://www.w3.org/2000/svg" viewBox="0 0 242.96 75.86">
  <g id="Layer_1-2" data-name="Layer 1">
    <g id="Logo">
      <g>
        <path class="text" d="M8.24,66.04L0,10.04H8.64l6.72,50.16h1.28L25.28,10.04h15.12l8.64,50.16h1.28l6.64-50.16h8.64l-8.24,56h-15.12L33.44,15.16h-1.28l-8.72,50.88H8.24Z"/>
        <path class="text" d="M78.56,21.24c-1.6,0-2.95-.52-4.04-1.56-1.09-1.04-1.64-2.39-1.64-4.04s.55-3,1.64-4.04c1.09-1.04,2.44-1.56,4.04-1.56s3.01,.52,4.08,1.56c1.07,1.04,1.6,2.39,1.6,4.04s-.53,3-1.6,4.04c-1.07,1.04-2.43,1.56-4.08,1.56Zm-4.16,44.8V26.6h8.24v39.44h-8.24Z"/>
        <path class="text" d="M94.88,66.04V10.04h8.24v56h-8.24Z"/>
      </g>
      <rect fill="#069748" x="124.96" width="118" height="75.86"/>
      <g>
        <path fill="#ffffff" d="M158.08,67.16c-4.21,0-7.95-.75-11.2-2.24-3.25-1.49-5.8-3.69-7.64-6.6-1.84-2.91-2.76-6.44-2.76-10.6v-2h8.56v2c0,3.95,1.19,6.91,3.56,8.88,2.37,1.97,5.53,2.96,9.48,2.96s7.01-.84,9.04-2.52c2.03-1.68,3.04-3.85,3.04-6.52,0-1.76-.48-3.2-1.44-4.32s-2.32-2.01-4.08-2.68c-1.76-.67-3.87-1.29-6.32-1.88l-2.96-.72c-3.57-.85-6.68-1.91-9.32-3.16-2.64-1.25-4.68-2.92-6.12-5-1.44-2.08-2.16-4.75-2.16-8s.81-6.13,2.44-8.48c1.63-2.35,3.88-4.16,6.76-5.44,2.88-1.28,6.27-1.92,10.16-1.92s7.37,.67,10.44,2c3.07,1.33,5.48,3.31,7.24,5.92,1.76,2.61,2.64,5.89,2.64,9.84v2.88h-8.56v-2.88c0-2.4-.49-4.35-1.48-5.84-.99-1.49-2.36-2.59-4.12-3.28-1.76-.69-3.81-1.04-6.16-1.04-3.41,0-6.07,.71-7.96,2.12-1.89,1.41-2.84,3.37-2.84,5.88,0,1.71,.41,3.11,1.24,4.2,.83,1.09,2.04,1.99,3.64,2.68,1.6,.69,3.6,1.31,6,1.84l2.96,.72c3.63,.8,6.83,1.83,9.6,3.08,2.77,1.25,4.96,2.95,6.56,5.08,1.6,2.13,2.4,4.88,2.4,8.24s-.84,6.29-2.52,8.8c-1.68,2.51-4.07,4.47-7.16,5.88-3.09,1.41-6.75,2.12-10.96,2.12Z"/>
        <path fill="#ffffff" d="M207.2,67.16c-4,0-7.57-.87-10.72-2.6-3.15-1.73-5.63-4.28-7.44-7.64-1.81-3.36-2.72-7.47-2.72-12.32v-13.12c0-7.31,2-12.89,6-16.76,4-3.87,9.41-5.8,16.24-5.8s11.89,1.83,15.52,5.48c3.63,3.65,5.44,8.55,5.44,14.68v.4h-8.56v-.64c0-2.29-.45-4.36-1.36-6.2-.91-1.84-2.27-3.29-4.08-4.36-1.81-1.07-4.13-1.6-6.96-1.6-4.27,0-7.6,1.29-10,3.88-2.4,2.59-3.6,6.17-3.6,10.76v13.44c0,4.53,1.2,8.12,3.6,10.76,2.4,2.64,5.76,3.96,10.08,3.96s7.39-1.17,9.36-3.52c1.97-2.35,2.96-5.39,2.96-9.12v-1.04h-15.04v-7.44h23.6v27.68h-8v-5.68h-1.28c-.48,1.01-1.19,2.05-2.12,3.12-.93,1.07-2.27,1.95-4,2.64-1.73,.69-4.04,1.04-6.92,1.04Z"/>
      </g>
    </g>
  </g>
</svg>
