<svg width="40" height="40" viewBox="0 0 40 40" xmlns="http://www.w3.org/2000/svg">
<g clip-path="url(#clip0_69_679)">
<path d="M10 8C10 6.89547 10.8955 6 12 6H38C39.1045 6 40 6.89547 40 8C40 9.10453 39.1045 10 38 10H12C10.8955 10 10 9.10445 10 8V8ZM38 18H2C0.895469 18 0 18.8955 0 20C0 21.1045 0.895469 22 2 22H38C39.1045 22 40 21.1045 40 20C40 18.8955 39.1045 18 38 18ZM38 30H20C18.8955 30 18 30.8955 18 32C18 33.1045 18.8955 34 20 34H38C39.1045 34 40 33.1045 40 32C40 30.8955 39.1045 30 38 30Z" />
</g>
<defs>
<clipPath id="clip0_69_679">
<rect width="40" height="40" fill="white"/>
</clipPath>
</defs>
</svg>
